<svg width="62" height="143" viewBox="0 0 62 143" fill="none" xmlns="http://www.w3.org/2000/svg">
<path d="M28 4.584V2.736L33.952 0.66V1.764L28.432 3.588V3.732L33.952 5.556V6.66L28 4.584ZM30.904 14.0077C30.408 14.0077 29.968 13.9237 29.584 13.7557C29.208 13.5957 28.888 13.3797 28.624 13.1077C28.368 12.8357 28.172 12.5157 28.036 12.1477C27.9 11.7877 27.832 11.4117 27.832 11.0197C27.832 10.6197 27.9 10.2397 28.036 9.87966C28.172 9.51966 28.368 9.20366 28.624 8.93166C28.888 8.65966 29.208 8.43966 29.584 8.27166C29.968 8.11166 30.408 8.03166 30.904 8.03166H31.048C31.536 8.03166 31.968 8.11166 32.344 8.27166C32.728 8.43966 33.052 8.65966 33.316 8.93166C33.58 9.21166 33.78 9.53166 33.916 9.89166C34.052 10.2517 34.12 10.6277 34.12 11.0197C34.12 11.4117 34.052 11.7877 33.916 12.1477C33.78 12.5077 33.58 12.8237 33.316 13.0957C33.052 13.3757 32.728 13.5957 32.344 13.7557C31.968 13.9237 31.536 14.0077 31.048 14.0077H30.904ZM28.72 11.0197C28.72 11.3077 28.768 11.5717 28.864 11.8117C28.968 12.0597 29.116 12.2757 29.308 12.4597C29.5 12.6437 29.728 12.7877 29.992 12.8917C30.264 12.9957 30.568 13.0477 30.904 13.0477H31.048C31.368 13.0477 31.66 12.9957 31.924 12.8917C32.196 12.7877 32.428 12.6437 32.62 12.4597C32.812 12.2757 32.96 12.0597 33.064 11.8117C33.176 11.5637 33.232 11.2997 33.232 11.0197C33.232 10.7397 33.176 10.4757 33.064 10.2277C32.96 9.97966 32.812 9.76366 32.62 9.57966C32.428 9.39566 32.196 9.25166 31.924 9.14766C31.66 9.04366 31.368 8.99166 31.048 8.99166H30.904C30.568 8.99166 30.264 9.04366 29.992 9.14766C29.728 9.25166 29.5 9.39566 29.308 9.57966C29.116 9.76366 28.968 9.97566 28.864 10.2157C28.768 10.4637 28.72 10.7317 28.72 11.0197ZM35.728 18.3793C35.96 18.3793 36.156 18.4593 36.316 18.6193C36.484 18.7873 36.568 18.9873 36.568 19.2193C36.568 19.4513 36.484 19.6473 36.316 19.8073C36.156 19.9753 35.96 20.0593 35.728 20.0593C35.496 20.0593 35.296 19.9753 35.128 19.8073C34.968 19.6473 34.888 19.4513 34.888 19.2193C34.888 18.9873 34.968 18.7873 35.128 18.6193C35.296 18.4593 35.496 18.3793 35.728 18.3793ZM33.952 16.3873V19.6993H26.536C26.264 19.6993 26.04 19.6113 25.864 19.4353C25.688 19.2673 25.6 19.0473 25.6 18.7753V16.0993H26.464V18.4393C26.464 18.6553 26.584 18.7633 26.824 18.7633H33.088V16.3873H33.952ZM33.952 22.883V24.755H36.4V25.691H33.952V27.995H33.088V25.691H29.224C28.984 25.691 28.864 25.799 28.864 26.015V27.707H28V25.679C28 25.407 28.088 25.183 28.264 25.007C28.44 24.839 28.664 24.755 28.936 24.755H33.088V22.883H33.952ZM35.728 32.2826C35.96 32.2826 36.156 32.3626 36.316 32.5226C36.484 32.6906 36.568 32.8906 36.568 33.1226C36.568 33.3546 36.484 33.5506 36.316 33.7106C36.156 33.8786 35.96 33.9626 35.728 33.9626C35.496 33.9626 35.296 33.8786 35.128 33.7106C34.968 33.5506 34.888 33.3546 34.888 33.1226C34.888 32.8906 34.968 32.6906 35.128 32.5226C35.296 32.3626 35.496 32.2826 35.728 32.2826ZM28.864 30.5786V32.6666H33.088V30.7946H33.952V33.6026H28.864V35.5466H28V30.5786H28.864ZM31.48 39.3183V39.5223L33.952 41.7903V42.9423H33.88L31.156 40.4703H30.94L28.072 43.2303H28V42.0783L30.616 39.5463V39.3183H28V38.3823H36.4V39.3183H31.48ZM30.112 50.6979C29.784 50.6339 29.48 50.5219 29.2 50.3619C28.92 50.2099 28.676 50.0139 28.468 49.7739C28.268 49.5339 28.112 49.2539 28 48.9339C27.888 48.6139 27.832 48.2579 27.832 47.8659C27.832 47.4499 27.9 47.0539 28.036 46.6779C28.172 46.3099 28.368 45.9859 28.624 45.7059C28.888 45.4259 29.208 45.2019 29.584 45.0339C29.96 44.8739 30.392 44.7939 30.88 44.7939H31.024C31.504 44.7939 31.936 44.8739 32.32 45.0339C32.704 45.2019 33.028 45.4259 33.292 45.7059C33.556 45.9859 33.76 46.3099 33.904 46.6779C34.048 47.0539 34.12 47.4499 34.12 47.8659C34.12 48.2419 34.064 48.5899 33.952 48.9099C33.84 49.2299 33.68 49.5099 33.472 49.7499C33.272 49.9979 33.032 50.1979 32.752 50.3499C32.472 50.5099 32.168 50.6179 31.84 50.6739L31.624 49.7379C31.832 49.7139 32.032 49.6539 32.224 49.5579C32.424 49.4699 32.596 49.3459 32.74 49.1859C32.892 49.0339 33.012 48.8459 33.1 48.6219C33.188 48.3979 33.232 48.1379 33.232 47.8419C33.232 47.5539 33.176 47.2819 33.064 47.0259C32.96 46.7779 32.808 46.5579 32.608 46.3659C32.416 46.1739 32.184 46.0219 31.912 45.9099C31.64 45.8059 31.344 45.7539 31.024 45.7539H30.88C30.544 45.7539 30.24 45.8059 29.968 45.9099C29.704 46.0219 29.48 46.1739 29.296 46.3659C29.112 46.5579 28.968 46.7819 28.864 47.0379C28.768 47.2939 28.72 47.5699 28.72 47.8659C28.72 48.1619 28.764 48.4179 28.852 48.6339C28.948 48.8579 29.068 49.0459 29.212 49.1979C29.364 49.3579 29.536 49.4819 29.728 49.5699C29.92 49.6659 30.12 49.7299 30.328 49.7619L30.112 50.6979ZM28.864 57.7096H28V52.5256H29.488L32.944 56.7736H33.088V52.5976H33.952V57.5656H32.512L29.008 53.2936H28.864V57.7096ZM28 60.7613V59.8253H36.4V60.7613H32.872V60.9053C33.256 61.0893 33.56 61.3453 33.784 61.6733C34.008 62.0093 34.12 62.4173 34.12 62.8973C34.12 63.5453 33.904 64.0693 33.472 64.4693C33.048 64.8773 32.408 65.0813 31.552 65.0813H28V64.1453H31.36C31.984 64.1453 32.452 64.0053 32.764 63.7253C33.076 63.4453 33.232 63.0653 33.232 62.5853C33.232 62.0173 33.036 61.5693 32.644 61.2413C32.26 60.9213 31.744 60.7613 31.096 60.7613H28ZM33.952 66.8369V68.9969H33.16V69.1409C33.488 69.2929 33.728 69.5089 33.88 69.7889C34.04 70.0689 34.12 70.3889 34.12 70.7489C34.12 71.3489 33.924 71.8329 33.532 72.2009C33.14 72.5689 32.568 72.7649 31.816 72.7889L31.672 71.8049C32.224 71.8049 32.62 71.6729 32.86 71.4089C33.108 71.1449 33.232 70.8209 33.232 70.4369C33.232 70.1889 33.184 69.9729 33.088 69.7889C32.992 69.6129 32.86 69.4649 32.692 69.3449C32.524 69.2249 32.328 69.1369 32.104 69.0809C31.88 69.0249 31.64 68.9969 31.384 68.9969H28.864V70.5089H28V66.6929H28.864V68.0609H33.088V66.8369H33.952ZM29.008 78.8406V78.6966C28.608 78.5046 28.312 78.2366 28.12 77.8926C27.928 77.5566 27.832 77.2006 27.832 76.8246C27.832 76.4326 27.896 76.0686 28.024 75.7326C28.16 75.3966 28.356 75.1006 28.612 74.8446C28.876 74.5966 29.196 74.4006 29.572 74.2566C29.948 74.1126 30.384 74.0406 30.88 74.0406H31.072C31.56 74.0406 31.992 74.1126 32.368 74.2566C32.744 74.4006 33.06 74.5966 33.316 74.8446C33.58 75.1006 33.78 75.3966 33.916 75.7326C34.052 76.0686 34.12 76.4246 34.12 76.8006C34.12 77.2086 34.028 77.5766 33.844 77.9046C33.668 78.2406 33.392 78.5046 33.016 78.6966V78.8406H33.952V79.7766H29.224C28.984 79.7766 28.864 79.8846 28.864 80.1006V80.4006H28V79.7646C28 79.4926 28.088 79.2686 28.264 79.0926C28.44 78.9246 28.664 78.8406 28.936 78.8406H29.008ZM28.72 76.9206C28.72 77.2006 28.772 77.4566 28.876 77.6886C28.98 77.9286 29.128 78.1326 29.32 78.3006C29.512 78.4686 29.74 78.6006 30.004 78.6966C30.276 78.7926 30.576 78.8406 30.904 78.8406H31.048C31.368 78.8406 31.66 78.7926 31.924 78.6966C32.196 78.6006 32.428 78.4646 32.62 78.2886C32.812 78.1206 32.96 77.9166 33.064 77.6766C33.176 77.4446 33.232 77.1926 33.232 76.9206C33.232 76.6406 33.18 76.3846 33.076 76.1526C32.972 75.9206 32.824 75.7166 32.632 75.5406C32.448 75.3726 32.22 75.2406 31.948 75.1446C31.684 75.0486 31.392 75.0006 31.072 75.0006H30.88C30.2 75.0006 29.668 75.1766 29.284 75.5286C28.908 75.8886 28.72 76.3526 28.72 76.9206ZM35.728 84.5082C35.96 84.5082 36.156 84.5882 36.316 84.7482C36.484 84.9162 36.568 85.1162 36.568 85.3482C36.568 85.5802 36.484 85.7762 36.316 85.9362C36.156 86.1042 35.96 86.1882 35.728 86.1882C35.496 86.1882 35.296 86.1042 35.128 85.9362C34.968 85.7762 34.888 85.5802 34.888 85.3482C34.888 85.1162 34.968 84.9162 35.128 84.7482C35.296 84.5882 35.496 84.5082 35.728 84.5082ZM33.952 82.5162V85.8282H26.536C26.264 85.8282 26.04 85.7402 25.864 85.5642C25.688 85.3962 25.6 85.1762 25.6 84.9042V82.2282H26.464V84.5682C26.464 84.7842 26.584 84.8922 26.824 84.8922H33.088V82.5162H33.952ZM30.688 89.8999C30.096 89.9239 29.62 90.1079 29.26 90.4519C28.9 90.7959 28.72 91.2759 28.72 91.8919C28.72 92.1719 28.752 92.4159 28.816 92.6239C28.88 92.8319 28.968 93.0079 29.08 93.1519C29.192 93.3039 29.32 93.4239 29.464 93.5119C29.616 93.6079 29.776 93.6839 29.944 93.7399L29.704 94.6279C29.152 94.4599 28.7 94.1479 28.348 93.6919C28.004 93.2439 27.832 92.6359 27.832 91.8679C27.832 91.4439 27.904 91.0519 28.048 90.6919C28.2 90.3399 28.412 90.0359 28.684 89.7799C28.956 89.5239 29.28 89.3239 29.656 89.1799C30.032 89.0359 30.448 88.9639 30.904 88.9639H31.192C31.608 88.9639 31.996 89.0359 32.356 89.1799C32.716 89.3319 33.024 89.5399 33.28 89.8039C33.544 90.0679 33.748 90.3759 33.892 90.7279C34.044 91.0879 34.12 91.4759 34.12 91.8919C34.12 92.3799 34.028 92.7999 33.844 93.1519C33.668 93.5119 33.448 93.8039 33.184 94.0279C32.92 94.2599 32.632 94.4279 32.32 94.5319C32.008 94.6439 31.72 94.6999 31.456 94.6999H30.688V89.8999ZM33.232 91.8919C33.232 91.6279 33.188 91.3799 33.1 91.1479C33.02 90.9239 32.904 90.7239 32.752 90.5479C32.6 90.3799 32.42 90.2399 32.212 90.1279C32.012 90.0239 31.792 89.9559 31.552 89.9239V93.7639C31.808 93.7479 32.04 93.6839 32.248 93.5719C32.456 93.4679 32.632 93.3279 32.776 93.1519C32.92 92.9839 33.032 92.7879 33.112 92.5639C33.192 92.3479 33.232 92.1239 33.232 91.8919Z" fill="white"/>
<path d="M3.82 106H2.28L0.55 101.04H1.47L2.99 105.64H3.11L4.63 101.04H5.55L3.82 106ZM11.673 103.58C11.673 103.993 11.603 104.36 11.463 104.68C11.3297 104.993 11.1497 105.26 10.923 105.48C10.6964 105.693 10.4297 105.857 10.123 105.97C9.82305 106.083 9.50971 106.14 9.18305 106.14C8.84971 106.14 8.53305 106.083 8.23305 105.97C7.93305 105.857 7.66971 105.693 7.44305 105.48C7.21638 105.26 7.03305 104.993 6.89305 104.68C6.75971 104.36 6.69305 103.993 6.69305 103.58V103.46C6.69305 103.053 6.75971 102.693 6.89305 102.38C7.03305 102.06 7.21638 101.79 7.44305 101.57C7.67638 101.35 7.94305 101.183 8.24305 101.07C8.54305 100.957 8.85638 100.9 9.18305 100.9C9.50971 100.9 9.82305 100.957 10.123 101.07C10.423 101.183 10.6864 101.35 10.913 101.57C11.1464 101.79 11.3297 102.06 11.463 102.38C11.603 102.693 11.673 103.053 11.673 103.46V103.58ZM9.18305 105.4C9.42305 105.4 9.64305 105.36 9.84305 105.28C10.0497 105.193 10.2297 105.07 10.383 104.91C10.5364 104.75 10.6564 104.56 10.743 104.34C10.8297 104.113 10.873 103.86 10.873 103.58V103.46C10.873 103.193 10.8297 102.95 10.743 102.73C10.6564 102.503 10.5364 102.31 10.383 102.15C10.2297 101.99 10.0497 101.867 9.84305 101.78C9.63638 101.687 9.41638 101.64 9.18305 101.64C8.94971 101.64 8.72971 101.687 8.52305 101.78C8.31638 101.867 8.13638 101.99 7.98305 102.15C7.82971 102.31 7.70971 102.503 7.62305 102.73C7.53638 102.95 7.49305 103.193 7.49305 103.46V103.58C7.49305 103.86 7.53638 104.113 7.62305 104.34C7.70971 104.56 7.82971 104.75 7.98305 104.91C8.13638 105.07 8.31305 105.193 8.51305 105.28C8.71971 105.36 8.94305 105.4 9.18305 105.4ZM15.3161 99.56C15.3161 99.3667 15.3828 99.2033 15.5161 99.07C15.6561 98.93 15.8228 98.86 16.0161 98.86C16.2094 98.86 16.3728 98.93 16.5061 99.07C16.6461 99.2033 16.7161 99.3667 16.7161 99.56C16.7161 99.7533 16.6461 99.92 16.5061 100.06C16.3728 100.193 16.2094 100.26 16.0161 100.26C15.8228 100.26 15.6561 100.193 15.5161 100.06C15.3828 99.92 15.3161 99.7533 15.3161 99.56ZM13.6561 101.04H16.4161V107.22C16.4161 107.447 16.3428 107.633 16.1961 107.78C16.0561 107.927 15.8728 108 15.6461 108H13.4161V107.28H15.3661C15.5461 107.28 15.6361 107.18 15.6361 106.98V101.76H13.6561V101.04ZM19.0691 101.04H20.6291V99H21.4091V101.04H23.3291V101.76H21.4091V104.98C21.4091 105.18 21.4991 105.28 21.6791 105.28H23.0891V106H21.3991C21.1725 106 20.9858 105.927 20.8391 105.78C20.6991 105.633 20.6291 105.447 20.6291 105.22V101.76H19.0691V101.04ZM26.9022 99.56C26.9022 99.3667 26.9689 99.2033 27.1022 99.07C27.2422 98.93 27.4089 98.86 27.6022 98.86C27.7955 98.86 27.9589 98.93 28.0922 99.07C28.2322 99.2033 28.3022 99.3667 28.3022 99.56C28.3022 99.7533 28.2322 99.92 28.0922 100.06C27.9589 100.193 27.7955 100.26 27.6022 100.26C27.4089 100.26 27.2422 100.193 27.1022 100.06C26.9689 99.92 26.9022 99.7533 26.9022 99.56ZM25.4822 105.28H27.2222V101.76H25.6622V101.04H28.0022V105.28H29.6222V106H25.4822V105.28ZM32.7652 103.1H32.9352L34.8252 101.04H35.7852V101.1L33.7252 103.37V103.55L36.0252 105.94V106H35.0652L32.9552 103.82H32.7652V106H31.9852V99H32.7652V103.1ZM42.2483 104.24C42.1949 104.513 42.1016 104.767 41.9683 105C41.8416 105.233 41.6783 105.437 41.4783 105.61C41.2783 105.777 41.0449 105.907 40.7783 106C40.5116 106.093 40.2149 106.14 39.8883 106.14C39.5416 106.14 39.2116 106.083 38.8983 105.97C38.5916 105.857 38.3216 105.693 38.0883 105.48C37.8549 105.26 37.6683 104.993 37.5283 104.68C37.3949 104.367 37.3283 104.007 37.3283 103.6V103.48C37.3283 103.08 37.3949 102.72 37.5283 102.4C37.6683 102.08 37.8549 101.81 38.0883 101.59C38.3216 101.37 38.5916 101.2 38.8983 101.08C39.2116 100.96 39.5416 100.9 39.8883 100.9C40.2016 100.9 40.4916 100.947 40.7583 101.04C41.0249 101.133 41.2583 101.267 41.4583 101.44C41.6649 101.607 41.8316 101.807 41.9583 102.04C42.0916 102.273 42.1816 102.527 42.2283 102.8L41.4483 102.98C41.4283 102.807 41.3783 102.64 41.2983 102.48C41.2249 102.313 41.1216 102.17 40.9883 102.05C40.8616 101.923 40.7049 101.823 40.5183 101.75C40.3316 101.677 40.1149 101.64 39.8683 101.64C39.6283 101.64 39.4016 101.687 39.1883 101.78C38.9816 101.867 38.7983 101.993 38.6383 102.16C38.4783 102.32 38.3516 102.513 38.2583 102.74C38.1716 102.967 38.1283 103.213 38.1283 103.48V103.6C38.1283 103.88 38.1716 104.133 38.2583 104.36C38.3516 104.58 38.4783 104.767 38.6383 104.92C38.7983 105.073 38.9849 105.193 39.1983 105.28C39.4116 105.36 39.6416 105.4 39.8883 105.4C40.1349 105.4 40.3483 105.363 40.5283 105.29C40.7149 105.21 40.8716 105.11 40.9983 104.99C41.1316 104.863 41.2349 104.72 41.3083 104.56C41.3883 104.4 41.4416 104.233 41.4683 104.06L42.2483 104.24ZM48.0913 105.28V106H43.7713V104.76L47.3113 101.88V101.76H43.8313V101.04H47.9713V102.24L44.4113 105.16V105.28H48.0913ZM50.6344 106H49.8544V99H50.6344V101.94H50.7544C50.9077 101.62 51.121 101.367 51.3944 101.18C51.6744 100.993 52.0144 100.9 52.4144 100.9C52.9544 100.9 53.391 101.08 53.7244 101.44C54.0644 101.793 54.2344 102.327 54.2344 103.04V106H53.4544V103.2C53.4544 102.68 53.3377 102.29 53.1044 102.03C52.871 101.77 52.5544 101.64 52.1544 101.64C51.681 101.64 51.3077 101.803 51.0344 102.13C50.7677 102.45 50.6344 102.88 50.6344 103.42V106ZM55.6974 101.04H57.4974V101.7H57.6174C57.7441 101.427 57.9241 101.227 58.1574 101.1C58.3908 100.967 58.6574 100.9 58.9574 100.9C59.4574 100.9 59.8608 101.063 60.1674 101.39C60.4741 101.717 60.6374 102.193 60.6574 102.82L59.8374 102.94C59.8374 102.48 59.7274 102.15 59.5074 101.95C59.2874 101.743 59.0174 101.64 58.6974 101.64C58.4908 101.64 58.3108 101.68 58.1574 101.76C58.0108 101.84 57.8874 101.95 57.7874 102.09C57.6874 102.23 57.6141 102.393 57.5674 102.58C57.5208 102.767 57.4974 102.967 57.4974 103.18V105.28H58.7574V106H55.5774V105.28H56.7174V101.76H55.6974V101.04Z" fill="white"/>
<path d="M19.82 128H18.28L16.55 123.04H17.47L18.99 127.64H19.11L20.63 123.04H21.55L19.82 128ZM27.673 125.58C27.673 125.993 27.603 126.36 27.463 126.68C27.3297 126.993 27.1497 127.26 26.923 127.48C26.6964 127.693 26.4297 127.857 26.123 127.97C25.823 128.083 25.5097 128.14 25.183 128.14C24.8497 128.14 24.533 128.083 24.233 127.97C23.933 127.857 23.6697 127.693 23.443 127.48C23.2164 127.26 23.033 126.993 22.893 126.68C22.7597 126.36 22.693 125.993 22.693 125.58V125.46C22.693 125.053 22.7597 124.693 22.893 124.38C23.033 124.06 23.2164 123.79 23.443 123.57C23.6764 123.35 23.943 123.183 24.243 123.07C24.543 122.957 24.8564 122.9 25.183 122.9C25.5097 122.9 25.823 122.957 26.123 123.07C26.423 123.183 26.6864 123.35 26.913 123.57C27.1464 123.79 27.3297 124.06 27.463 124.38C27.603 124.693 27.673 125.053 27.673 125.46V125.58ZM25.183 127.4C25.423 127.4 25.643 127.36 25.843 127.28C26.0497 127.193 26.2297 127.07 26.383 126.91C26.5364 126.75 26.6564 126.56 26.743 126.34C26.8297 126.113 26.873 125.86 26.873 125.58V125.46C26.873 125.193 26.8297 124.95 26.743 124.73C26.6564 124.503 26.5364 124.31 26.383 124.15C26.2297 123.99 26.0497 123.867 25.843 123.78C25.6364 123.687 25.4164 123.64 25.183 123.64C24.9497 123.64 24.7297 123.687 24.523 123.78C24.3164 123.867 24.1364 123.99 23.983 124.15C23.8297 124.31 23.7097 124.503 23.623 124.73C23.5364 124.95 23.493 125.193 23.493 125.46V125.58C23.493 125.86 23.5364 126.113 23.623 126.34C23.7097 126.56 23.8297 126.75 23.983 126.91C24.1364 127.07 24.313 127.193 24.513 127.28C24.7197 127.36 24.943 127.4 25.183 127.4ZM31.3161 121.56C31.3161 121.367 31.3828 121.203 31.5161 121.07C31.6561 120.93 31.8228 120.86 32.0161 120.86C32.2094 120.86 32.3728 120.93 32.5061 121.07C32.6461 121.203 32.7161 121.367 32.7161 121.56C32.7161 121.753 32.6461 121.92 32.5061 122.06C32.3728 122.193 32.2094 122.26 32.0161 122.26C31.8228 122.26 31.6561 122.193 31.5161 122.06C31.3828 121.92 31.3161 121.753 31.3161 121.56ZM29.6561 123.04H32.4161V129.22C32.4161 129.447 32.3428 129.633 32.1961 129.78C32.0561 129.927 31.8728 130 31.6461 130H29.4161V129.28H31.3661C31.5461 129.28 31.6361 129.18 31.6361 128.98V123.76H29.6561V123.04ZM35.0691 123.04H36.6291V121H37.4091V123.04H39.3291V123.76H37.4091V126.98C37.4091 127.18 37.4991 127.28 37.6791 127.28H39.0891V128H37.3991C37.1725 128 36.9858 127.927 36.8391 127.78C36.6991 127.633 36.6291 127.447 36.6291 127.22V123.76H35.0691V123.04Z" fill="white"/>
<path d="M10.82 116H9.28L7.55 111.04H8.47L9.99 115.64H10.11L11.63 111.04H12.55L10.82 116ZM18.673 113.58C18.673 113.993 18.603 114.36 18.463 114.68C18.3297 114.993 18.1497 115.26 17.923 115.48C17.6964 115.693 17.4297 115.857 17.123 115.97C16.823 116.083 16.5097 116.14 16.183 116.14C15.8497 116.14 15.533 116.083 15.233 115.97C14.933 115.857 14.6697 115.693 14.443 115.48C14.2164 115.26 14.033 114.993 13.893 114.68C13.7597 114.36 13.693 113.993 13.693 113.58V113.46C13.693 113.053 13.7597 112.693 13.893 112.38C14.033 112.06 14.2164 111.79 14.443 111.57C14.6764 111.35 14.943 111.183 15.243 111.07C15.543 110.957 15.8564 110.9 16.183 110.9C16.5097 110.9 16.823 110.957 17.123 111.07C17.423 111.183 17.6864 111.35 17.913 111.57C18.1464 111.79 18.3297 112.06 18.463 112.38C18.603 112.693 18.673 113.053 18.673 113.46V113.58ZM16.183 115.4C16.423 115.4 16.643 115.36 16.843 115.28C17.0497 115.193 17.2297 115.07 17.383 114.91C17.5364 114.75 17.6564 114.56 17.743 114.34C17.8297 114.113 17.873 113.86 17.873 113.58V113.46C17.873 113.193 17.8297 112.95 17.743 112.73C17.6564 112.503 17.5364 112.31 17.383 112.15C17.2297 111.99 17.0497 111.867 16.843 111.78C16.6364 111.687 16.4164 111.64 16.183 111.64C15.9497 111.64 15.7297 111.687 15.523 111.78C15.3164 111.867 15.1364 111.99 14.983 112.15C14.8297 112.31 14.7097 112.503 14.623 112.73C14.5364 112.95 14.493 113.193 14.493 113.46V113.58C14.493 113.86 14.5364 114.113 14.623 114.34C14.7097 114.56 14.8297 114.75 14.983 114.91C15.1364 115.07 15.313 115.193 15.513 115.28C15.7197 115.36 15.943 115.4 16.183 115.4ZM22.3161 109.56C22.3161 109.367 22.3828 109.203 22.5161 109.07C22.6561 108.93 22.8228 108.86 23.0161 108.86C23.2094 108.86 23.3728 108.93 23.5061 109.07C23.6461 109.203 23.7161 109.367 23.7161 109.56C23.7161 109.753 23.6461 109.92 23.5061 110.06C23.3728 110.193 23.2094 110.26 23.0161 110.26C22.8228 110.26 22.6561 110.193 22.5161 110.06C22.3828 109.92 22.3161 109.753 22.3161 109.56ZM20.6561 111.04H23.4161V117.22C23.4161 117.447 23.3428 117.633 23.1961 117.78C23.0561 117.927 22.8728 118 22.6461 118H20.4161V117.28H22.3661C22.5461 117.28 22.6361 117.18 22.6361 116.98V111.76H20.6561V111.04ZM26.0691 111.04H27.6291V109H28.4091V111.04H30.3291V111.76H28.4091V114.98C28.4091 115.18 28.4991 115.28 28.6791 115.28H30.0891V116H28.3991C28.1725 116 27.9858 115.927 27.8391 115.78C27.6991 115.633 27.6291 115.447 27.6291 115.22V111.76H26.0691V111.04ZM33.9022 109.56C33.9022 109.367 33.9689 109.203 34.1022 109.07C34.2422 108.93 34.4089 108.86 34.6022 108.86C34.7955 108.86 34.9589 108.93 35.0922 109.07C35.2322 109.203 35.3022 109.367 35.3022 109.56C35.3022 109.753 35.2322 109.92 35.0922 110.06C34.9589 110.193 34.7955 110.26 34.6022 110.26C34.4089 110.26 34.2422 110.193 34.1022 110.06C33.9689 109.92 33.9022 109.753 33.9022 109.56ZM32.4822 115.28H34.2222V111.76H32.6622V111.04H35.0022V115.28H36.6222V116H32.4822V115.28ZM39.7652 113.1H39.9352L41.8252 111.04H42.7852V111.1L40.7252 113.37V113.55L43.0252 115.94V116H42.0652L39.9552 113.82H39.7652V116H38.9852V109H39.7652V113.1ZM49.2483 114.24C49.1949 114.513 49.1016 114.767 48.9683 115C48.8416 115.233 48.6783 115.437 48.4783 115.61C48.2783 115.777 48.0449 115.907 47.7783 116C47.5116 116.093 47.2149 116.14 46.8883 116.14C46.5416 116.14 46.2116 116.083 45.8983 115.97C45.5916 115.857 45.3216 115.693 45.0883 115.48C44.8549 115.26 44.6683 114.993 44.5283 114.68C44.3949 114.367 44.3283 114.007 44.3283 113.6V113.48C44.3283 113.08 44.3949 112.72 44.5283 112.4C44.6683 112.08 44.8549 111.81 45.0883 111.59C45.3216 111.37 45.5916 111.2 45.8983 111.08C46.2116 110.96 46.5416 110.9 46.8883 110.9C47.2016 110.9 47.4916 110.947 47.7583 111.04C48.0249 111.133 48.2583 111.267 48.4583 111.44C48.6649 111.607 48.8316 111.807 48.9583 112.04C49.0916 112.273 49.1816 112.527 49.2283 112.8L48.4483 112.98C48.4283 112.807 48.3783 112.64 48.2983 112.48C48.2249 112.313 48.1216 112.17 47.9883 112.05C47.8616 111.923 47.7049 111.823 47.5183 111.75C47.3316 111.677 47.1149 111.64 46.8683 111.64C46.6283 111.64 46.4016 111.687 46.1883 111.78C45.9816 111.867 45.7983 111.993 45.6383 112.16C45.4783 112.32 45.3516 112.513 45.2583 112.74C45.1716 112.967 45.1283 113.213 45.1283 113.48V113.6C45.1283 113.88 45.1716 114.133 45.2583 114.36C45.3516 114.58 45.4783 114.767 45.6383 114.92C45.7983 115.073 45.9849 115.193 46.1983 115.28C46.4116 115.36 46.6416 115.4 46.8883 115.4C47.1349 115.4 47.3483 115.363 47.5283 115.29C47.7149 115.21 47.8716 115.11 47.9983 114.99C48.1316 114.863 48.2349 114.72 48.3083 114.56C48.3883 114.4 48.4416 114.233 48.4683 114.06L49.2483 114.24Z" fill="white"/>
<path d="M29.82 139H28.28L26.55 134.04H27.47L28.99 138.64H29.11L30.63 134.04H31.55L29.82 139Z" fill="white"/>
<path d="M28 4.584V2.736L33.952 0.66V1.764L28.432 3.588V3.732L33.952 5.556V6.66L28 4.584ZM30.904 14.0077C30.408 14.0077 29.968 13.9237 29.584 13.7557C29.208 13.5957 28.888 13.3797 28.624 13.1077C28.368 12.8357 28.172 12.5157 28.036 12.1477C27.9 11.7877 27.832 11.4117 27.832 11.0197C27.832 10.6197 27.9 10.2397 28.036 9.87966C28.172 9.51966 28.368 9.20366 28.624 8.93166C28.888 8.65966 29.208 8.43966 29.584 8.27166C29.968 8.11166 30.408 8.03166 30.904 8.03166H31.048C31.536 8.03166 31.968 8.11166 32.344 8.27166C32.728 8.43966 33.052 8.65966 33.316 8.93166C33.58 9.21166 33.78 9.53166 33.916 9.89166C34.052 10.2517 34.12 10.6277 34.12 11.0197C34.12 11.4117 34.052 11.7877 33.916 12.1477C33.78 12.5077 33.58 12.8237 33.316 13.0957C33.052 13.3757 32.728 13.5957 32.344 13.7557C31.968 13.9237 31.536 14.0077 31.048 14.0077H30.904ZM28.72 11.0197C28.72 11.3077 28.768 11.5717 28.864 11.8117C28.968 12.0597 29.116 12.2757 29.308 12.4597C29.5 12.6437 29.728 12.7877 29.992 12.8917C30.264 12.9957 30.568 13.0477 30.904 13.0477H31.048C31.368 13.0477 31.66 12.9957 31.924 12.8917C32.196 12.7877 32.428 12.6437 32.62 12.4597C32.812 12.2757 32.96 12.0597 33.064 11.8117C33.176 11.5637 33.232 11.2997 33.232 11.0197C33.232 10.7397 33.176 10.4757 33.064 10.2277C32.96 9.97966 32.812 9.76366 32.62 9.57966C32.428 9.39566 32.196 9.25166 31.924 9.14766C31.66 9.04366 31.368 8.99166 31.048 8.99166H30.904C30.568 8.99166 30.264 9.04366 29.992 9.14766C29.728 9.25166 29.5 9.39566 29.308 9.57966C29.116 9.76366 28.968 9.97566 28.864 10.2157C28.768 10.4637 28.72 10.7317 28.72 11.0197ZM35.728 18.3793C35.96 18.3793 36.156 18.4593 36.316 18.6193C36.484 18.7873 36.568 18.9873 36.568 19.2193C36.568 19.4513 36.484 19.6473 36.316 19.8073C36.156 19.9753 35.96 20.0593 35.728 20.0593C35.496 20.0593 35.296 19.9753 35.128 19.8073C34.968 19.6473 34.888 19.4513 34.888 19.2193C34.888 18.9873 34.968 18.7873 35.128 18.6193C35.296 18.4593 35.496 18.3793 35.728 18.3793ZM33.952 16.3873V19.6993H26.536C26.264 19.6993 26.04 19.6113 25.864 19.4353C25.688 19.2673 25.6 19.0473 25.6 18.7753V16.0993H26.464V18.4393C26.464 18.6553 26.584 18.7633 26.824 18.7633H33.088V16.3873H33.952ZM33.952 22.883V24.755H36.4V25.691H33.952V27.995H33.088V25.691H29.224C28.984 25.691 28.864 25.799 28.864 26.015V27.707H28V25.679C28 25.407 28.088 25.183 28.264 25.007C28.44 24.839 28.664 24.755 28.936 24.755H33.088V22.883H33.952ZM35.728 32.2826C35.96 32.2826 36.156 32.3626 36.316 32.5226C36.484 32.6906 36.568 32.8906 36.568 33.1226C36.568 33.3546 36.484 33.5506 36.316 33.7106C36.156 33.8786 35.96 33.9626 35.728 33.9626C35.496 33.9626 35.296 33.8786 35.128 33.7106C34.968 33.5506 34.888 33.3546 34.888 33.1226C34.888 32.8906 34.968 32.6906 35.128 32.5226C35.296 32.3626 35.496 32.2826 35.728 32.2826ZM28.864 30.5786V32.6666H33.088V30.7946H33.952V33.6026H28.864V35.5466H28V30.5786H28.864ZM31.48 39.3183V39.5223L33.952 41.7903V42.9423H33.88L31.156 40.4703H30.94L28.072 43.2303H28V42.0783L30.616 39.5463V39.3183H28V38.3823H36.4V39.3183H31.48ZM30.112 50.6979C29.784 50.6339 29.48 50.5219 29.2 50.3619C28.92 50.2099 28.676 50.0139 28.468 49.7739C28.268 49.5339 28.112 49.2539 28 48.9339C27.888 48.6139 27.832 48.2579 27.832 47.8659C27.832 47.4499 27.9 47.0539 28.036 46.6779C28.172 46.3099 28.368 45.9859 28.624 45.7059C28.888 45.4259 29.208 45.2019 29.584 45.0339C29.96 44.8739 30.392 44.7939 30.88 44.7939H31.024C31.504 44.7939 31.936 44.8739 32.32 45.0339C32.704 45.2019 33.028 45.4259 33.292 45.7059C33.556 45.9859 33.76 46.3099 33.904 46.6779C34.048 47.0539 34.12 47.4499 34.12 47.8659C34.12 48.2419 34.064 48.5899 33.952 48.9099C33.84 49.2299 33.68 49.5099 33.472 49.7499C33.272 49.9979 33.032 50.1979 32.752 50.3499C32.472 50.5099 32.168 50.6179 31.84 50.6739L31.624 49.7379C31.832 49.7139 32.032 49.6539 32.224 49.5579C32.424 49.4699 32.596 49.3459 32.74 49.1859C32.892 49.0339 33.012 48.8459 33.1 48.6219C33.188 48.3979 33.232 48.1379 33.232 47.8419C33.232 47.5539 33.176 47.2819 33.064 47.0259C32.96 46.7779 32.808 46.5579 32.608 46.3659C32.416 46.1739 32.184 46.0219 31.912 45.9099C31.64 45.8059 31.344 45.7539 31.024 45.7539H30.88C30.544 45.7539 30.24 45.8059 29.968 45.9099C29.704 46.0219 29.48 46.1739 29.296 46.3659C29.112 46.5579 28.968 46.7819 28.864 47.0379C28.768 47.2939 28.72 47.5699 28.72 47.8659C28.72 48.1619 28.764 48.4179 28.852 48.6339C28.948 48.8579 29.068 49.0459 29.212 49.1979C29.364 49.3579 29.536 49.4819 29.728 49.5699C29.92 49.6659 30.12 49.7299 30.328 49.7619L30.112 50.6979ZM28.864 57.7096H28V52.5256H29.488L32.944 56.7736H33.088V52.5976H33.952V57.5656H32.512L29.008 53.2936H28.864V57.7096ZM28 60.7613V59.8253H36.4V60.7613H32.872V60.9053C33.256 61.0893 33.56 61.3453 33.784 61.6733C34.008 62.0093 34.12 62.4173 34.12 62.8973C34.12 63.5453 33.904 64.0693 33.472 64.4693C33.048 64.8773 32.408 65.0813 31.552 65.0813H28V64.1453H31.36C31.984 64.1453 32.452 64.0053 32.764 63.7253C33.076 63.4453 33.232 63.0653 33.232 62.5853C33.232 62.0173 33.036 61.5693 32.644 61.2413C32.26 60.9213 31.744 60.7613 31.096 60.7613H28ZM33.952 66.8369V68.9969H33.16V69.1409C33.488 69.2929 33.728 69.5089 33.88 69.7889C34.04 70.0689 34.12 70.3889 34.12 70.7489C34.12 71.3489 33.924 71.8329 33.532 72.2009C33.14 72.5689 32.568 72.7649 31.816 72.7889L31.672 71.8049C32.224 71.8049 32.62 71.6729 32.86 71.4089C33.108 71.1449 33.232 70.8209 33.232 70.4369C33.232 70.1889 33.184 69.9729 33.088 69.7889C32.992 69.6129 32.86 69.4649 32.692 69.3449C32.524 69.2249 32.328 69.1369 32.104 69.0809C31.88 69.0249 31.64 68.9969 31.384 68.9969H28.864V70.5089H28V66.6929H28.864V68.0609H33.088V66.8369H33.952ZM29.008 78.8406V78.6966C28.608 78.5046 28.312 78.2366 28.12 77.8926C27.928 77.5566 27.832 77.2006 27.832 76.8246C27.832 76.4326 27.896 76.0686 28.024 75.7326C28.16 75.3966 28.356 75.1006 28.612 74.8446C28.876 74.5966 29.196 74.4006 29.572 74.2566C29.948 74.1126 30.384 74.0406 30.88 74.0406H31.072C31.56 74.0406 31.992 74.1126 32.368 74.2566C32.744 74.4006 33.06 74.5966 33.316 74.8446C33.58 75.1006 33.78 75.3966 33.916 75.7326C34.052 76.0686 34.12 76.4246 34.12 76.8006C34.12 77.2086 34.028 77.5766 33.844 77.9046C33.668 78.2406 33.392 78.5046 33.016 78.6966V78.8406H33.952V79.7766H29.224C28.984 79.7766 28.864 79.8846 28.864 80.1006V80.4006H28V79.7646C28 79.4926 28.088 79.2686 28.264 79.0926C28.44 78.9246 28.664 78.8406 28.936 78.8406H29.008ZM28.72 76.9206C28.72 77.2006 28.772 77.4566 28.876 77.6886C28.98 77.9286 29.128 78.1326 29.32 78.3006C29.512 78.4686 29.74 78.6006 30.004 78.6966C30.276 78.7926 30.576 78.8406 30.904 78.8406H31.048C31.368 78.8406 31.66 78.7926 31.924 78.6966C32.196 78.6006 32.428 78.4646 32.62 78.2886C32.812 78.1206 32.96 77.9166 33.064 77.6766C33.176 77.4446 33.232 77.1926 33.232 76.9206C33.232 76.6406 33.18 76.3846 33.076 76.1526C32.972 75.9206 32.824 75.7166 32.632 75.5406C32.448 75.3726 32.22 75.2406 31.948 75.1446C31.684 75.0486 31.392 75.0006 31.072 75.0006H30.88C30.2 75.0006 29.668 75.1766 29.284 75.5286C28.908 75.8886 28.72 76.3526 28.72 76.9206ZM35.728 84.5082C35.96 84.5082 36.156 84.5882 36.316 84.7482C36.484 84.9162 36.568 85.1162 36.568 85.3482C36.568 85.5802 36.484 85.7762 36.316 85.9362C36.156 86.1042 35.96 86.1882 35.728 86.1882C35.496 86.1882 35.296 86.1042 35.128 85.9362C34.968 85.7762 34.888 85.5802 34.888 85.3482C34.888 85.1162 34.968 84.9162 35.128 84.7482C35.296 84.5882 35.496 84.5082 35.728 84.5082ZM33.952 82.5162V85.8282H26.536C26.264 85.8282 26.04 85.7402 25.864 85.5642C25.688 85.3962 25.6 85.1762 25.6 84.9042V82.2282H26.464V84.5682C26.464 84.7842 26.584 84.8922 26.824 84.8922H33.088V82.5162H33.952ZM30.688 89.8999C30.096 89.9239 29.62 90.1079 29.26 90.4519C28.9 90.7959 28.72 91.2759 28.72 91.8919C28.72 92.1719 28.752 92.4159 28.816 92.6239C28.88 92.8319 28.968 93.0079 29.08 93.1519C29.192 93.3039 29.32 93.4239 29.464 93.5119C29.616 93.6079 29.776 93.6839 29.944 93.7399L29.704 94.6279C29.152 94.4599 28.7 94.1479 28.348 93.6919C28.004 93.2439 27.832 92.6359 27.832 91.8679C27.832 91.4439 27.904 91.0519 28.048 90.6919C28.2 90.3399 28.412 90.0359 28.684 89.7799C28.956 89.5239 29.28 89.3239 29.656 89.1799C30.032 89.0359 30.448 88.9639 30.904 88.9639H31.192C31.608 88.9639 31.996 89.0359 32.356 89.1799C32.716 89.3319 33.024 89.5399 33.28 89.8039C33.544 90.0679 33.748 90.3759 33.892 90.7279C34.044 91.0879 34.12 91.4759 34.12 91.8919C34.12 92.3799 34.028 92.7999 33.844 93.1519C33.668 93.5119 33.448 93.8039 33.184 94.0279C32.92 94.2599 32.632 94.4279 32.32 94.5319C32.008 94.6439 31.72 94.6999 31.456 94.6999H30.688V89.8999ZM33.232 91.8919C33.232 91.6279 33.188 91.3799 33.1 91.1479C33.02 90.9239 32.904 90.7239 32.752 90.5479C32.6 90.3799 32.42 90.2399 32.212 90.1279C32.012 90.0239 31.792 89.9559 31.552 89.9239V93.7639C31.808 93.7479 32.04 93.6839 32.248 93.5719C32.456 93.4679 32.632 93.3279 32.776 93.1519C32.92 92.9839 33.032 92.7879 33.112 92.5639C33.192 92.3479 33.232 92.1239 33.232 91.8919Z" fill="white"/>
<path d="M3.82 106H2.28L0.55 101.04H1.47L2.99 105.64H3.11L4.63 101.04H5.55L3.82 106ZM11.673 103.58C11.673 103.993 11.603 104.36 11.463 104.68C11.3297 104.993 11.1497 105.26 10.923 105.48C10.6964 105.693 10.4297 105.857 10.123 105.97C9.82305 106.083 9.50971 106.14 9.18305 106.14C8.84971 106.14 8.53305 106.083 8.23305 105.97C7.93305 105.857 7.66971 105.693 7.44305 105.48C7.21638 105.26 7.03305 104.993 6.89305 104.68C6.75971 104.36 6.69305 103.993 6.69305 103.58V103.46C6.69305 103.053 6.75971 102.693 6.89305 102.38C7.03305 102.06 7.21638 101.79 7.44305 101.57C7.67638 101.35 7.94305 101.183 8.24305 101.07C8.54305 100.957 8.85638 100.9 9.18305 100.9C9.50971 100.9 9.82305 100.957 10.123 101.07C10.423 101.183 10.6864 101.35 10.913 101.57C11.1464 101.79 11.3297 102.06 11.463 102.38C11.603 102.693 11.673 103.053 11.673 103.46V103.58ZM9.18305 105.4C9.42305 105.4 9.64305 105.36 9.84305 105.28C10.0497 105.193 10.2297 105.07 10.383 104.91C10.5364 104.75 10.6564 104.56 10.743 104.34C10.8297 104.113 10.873 103.86 10.873 103.58V103.46C10.873 103.193 10.8297 102.95 10.743 102.73C10.6564 102.503 10.5364 102.31 10.383 102.15C10.2297 101.99 10.0497 101.867 9.84305 101.78C9.63638 101.687 9.41638 101.64 9.18305 101.64C8.94971 101.64 8.72971 101.687 8.52305 101.78C8.31638 101.867 8.13638 101.99 7.98305 102.15C7.82971 102.31 7.70971 102.503 7.62305 102.73C7.53638 102.95 7.49305 103.193 7.49305 103.46V103.58C7.49305 103.86 7.53638 104.113 7.62305 104.34C7.70971 104.56 7.82971 104.75 7.98305 104.91C8.13638 105.07 8.31305 105.193 8.51305 105.28C8.71971 105.36 8.94305 105.4 9.18305 105.4ZM15.3161 99.56C15.3161 99.3667 15.3828 99.2033 15.5161 99.07C15.6561 98.93 15.8228 98.86 16.0161 98.86C16.2094 98.86 16.3728 98.93 16.5061 99.07C16.6461 99.2033 16.7161 99.3667 16.7161 99.56C16.7161 99.7533 16.6461 99.92 16.5061 100.06C16.3728 100.193 16.2094 100.26 16.0161 100.26C15.8228 100.26 15.6561 100.193 15.5161 100.06C15.3828 99.92 15.3161 99.7533 15.3161 99.56ZM13.6561 101.04H16.4161V107.22C16.4161 107.447 16.3428 107.633 16.1961 107.78C16.0561 107.927 15.8728 108 15.6461 108H13.4161V107.28H15.3661C15.5461 107.28 15.6361 107.18 15.6361 106.98V101.76H13.6561V101.04ZM19.0691 101.04H20.6291V99H21.4091V101.04H23.3291V101.76H21.4091V104.98C21.4091 105.18 21.4991 105.28 21.6791 105.28H23.0891V106H21.3991C21.1725 106 20.9858 105.927 20.8391 105.78C20.6991 105.633 20.6291 105.447 20.6291 105.22V101.76H19.0691V101.04ZM26.9022 99.56C26.9022 99.3667 26.9689 99.2033 27.1022 99.07C27.2422 98.93 27.4089 98.86 27.6022 98.86C27.7955 98.86 27.9589 98.93 28.0922 99.07C28.2322 99.2033 28.3022 99.3667 28.3022 99.56C28.3022 99.7533 28.2322 99.92 28.0922 100.06C27.9589 100.193 27.7955 100.26 27.6022 100.26C27.4089 100.26 27.2422 100.193 27.1022 100.06C26.9689 99.92 26.9022 99.7533 26.9022 99.56ZM25.4822 105.28H27.2222V101.76H25.6622V101.04H28.0022V105.28H29.6222V106H25.4822V105.28ZM32.7652 103.1H32.9352L34.8252 101.04H35.7852V101.1L33.7252 103.37V103.55L36.0252 105.94V106H35.0652L32.9552 103.82H32.7652V106H31.9852V99H32.7652V103.1ZM42.2483 104.24C42.1949 104.513 42.1016 104.767 41.9683 105C41.8416 105.233 41.6783 105.437 41.4783 105.61C41.2783 105.777 41.0449 105.907 40.7783 106C40.5116 106.093 40.2149 106.14 39.8883 106.14C39.5416 106.14 39.2116 106.083 38.8983 105.97C38.5916 105.857 38.3216 105.693 38.0883 105.48C37.8549 105.26 37.6683 104.993 37.5283 104.68C37.3949 104.367 37.3283 104.007 37.3283 103.6V103.48C37.3283 103.08 37.3949 102.72 37.5283 102.4C37.6683 102.08 37.8549 101.81 38.0883 101.59C38.3216 101.37 38.5916 101.2 38.8983 101.08C39.2116 100.96 39.5416 100.9 39.8883 100.9C40.2016 100.9 40.4916 100.947 40.7583 101.04C41.0249 101.133 41.2583 101.267 41.4583 101.44C41.6649 101.607 41.8316 101.807 41.9583 102.04C42.0916 102.273 42.1816 102.527 42.2283 102.8L41.4483 102.98C41.4283 102.807 41.3783 102.64 41.2983 102.48C41.2249 102.313 41.1216 102.17 40.9883 102.05C40.8616 101.923 40.7049 101.823 40.5183 101.75C40.3316 101.677 40.1149 101.64 39.8683 101.64C39.6283 101.64 39.4016 101.687 39.1883 101.78C38.9816 101.867 38.7983 101.993 38.6383 102.16C38.4783 102.32 38.3516 102.513 38.2583 102.74C38.1716 102.967 38.1283 103.213 38.1283 103.48V103.6C38.1283 103.88 38.1716 104.133 38.2583 104.36C38.3516 104.58 38.4783 104.767 38.6383 104.92C38.7983 105.073 38.9849 105.193 39.1983 105.28C39.4116 105.36 39.6416 105.4 39.8883 105.4C40.1349 105.4 40.3483 105.363 40.5283 105.29C40.7149 105.21 40.8716 105.11 40.9983 104.99C41.1316 104.863 41.2349 104.72 41.3083 104.56C41.3883 104.4 41.4416 104.233 41.4683 104.06L42.2483 104.24ZM48.0913 105.28V106H43.7713V104.76L47.3113 101.88V101.76H43.8313V101.04H47.9713V102.24L44.4113 105.16V105.28H48.0913ZM50.6344 106H49.8544V99H50.6344V101.94H50.7544C50.9077 101.62 51.121 101.367 51.3944 101.18C51.6744 100.993 52.0144 100.9 52.4144 100.9C52.9544 100.9 53.391 101.08 53.7244 101.44C54.0644 101.793 54.2344 102.327 54.2344 103.04V106H53.4544V103.2C53.4544 102.68 53.3377 102.29 53.1044 102.03C52.871 101.77 52.5544 101.64 52.1544 101.64C51.681 101.64 51.3077 101.803 51.0344 102.13C50.7677 102.45 50.6344 102.88 50.6344 103.42V106ZM55.6974 101.04H57.4974V101.7H57.6174C57.7441 101.427 57.9241 101.227 58.1574 101.1C58.3908 100.967 58.6574 100.9 58.9574 100.9C59.4574 100.9 59.8608 101.063 60.1674 101.39C60.4741 101.717 60.6374 102.193 60.6574 102.82L59.8374 102.94C59.8374 102.48 59.7274 102.15 59.5074 101.95C59.2874 101.743 59.0174 101.64 58.6974 101.64C58.4908 101.64 58.3108 101.68 58.1574 101.76C58.0108 101.84 57.8874 101.95 57.7874 102.09C57.6874 102.23 57.6141 102.393 57.5674 102.58C57.5208 102.767 57.4974 102.967 57.4974 103.18V105.28H58.7574V106H55.5774V105.28H56.7174V101.76H55.6974V101.04Z" fill="white"/>
<path d="M19.82 128H18.28L16.55 123.04H17.47L18.99 127.64H19.11L20.63 123.04H21.55L19.82 128ZM27.673 125.58C27.673 125.993 27.603 126.36 27.463 126.68C27.3297 126.993 27.1497 127.26 26.923 127.48C26.6964 127.693 26.4297 127.857 26.123 127.97C25.823 128.083 25.5097 128.14 25.183 128.14C24.8497 128.14 24.533 128.083 24.233 127.97C23.933 127.857 23.6697 127.693 23.443 127.48C23.2164 127.26 23.033 126.993 22.893 126.68C22.7597 126.36 22.693 125.993 22.693 125.58V125.46C22.693 125.053 22.7597 124.693 22.893 124.38C23.033 124.06 23.2164 123.79 23.443 123.57C23.6764 123.35 23.943 123.183 24.243 123.07C24.543 122.957 24.8564 122.9 25.183 122.9C25.5097 122.9 25.823 122.957 26.123 123.07C26.423 123.183 26.6864 123.35 26.913 123.57C27.1464 123.79 27.3297 124.06 27.463 124.38C27.603 124.693 27.673 125.053 27.673 125.46V125.58ZM25.183 127.4C25.423 127.4 25.643 127.36 25.843 127.28C26.0497 127.193 26.2297 127.07 26.383 126.91C26.5364 126.75 26.6564 126.56 26.743 126.34C26.8297 126.113 26.873 125.86 26.873 125.58V125.46C26.873 125.193 26.8297 124.95 26.743 124.73C26.6564 124.503 26.5364 124.31 26.383 124.15C26.2297 123.99 26.0497 123.867 25.843 123.78C25.6364 123.687 25.4164 123.64 25.183 123.64C24.9497 123.64 24.7297 123.687 24.523 123.78C24.3164 123.867 24.1364 123.99 23.983 124.15C23.8297 124.31 23.7097 124.503 23.623 124.73C23.5364 124.95 23.493 125.193 23.493 125.46V125.58C23.493 125.86 23.5364 126.113 23.623 126.34C23.7097 126.56 23.8297 126.75 23.983 126.91C24.1364 127.07 24.313 127.193 24.513 127.28C24.7197 127.36 24.943 127.4 25.183 127.4ZM31.3161 121.56C31.3161 121.367 31.3828 121.203 31.5161 121.07C31.6561 120.93 31.8228 120.86 32.0161 120.86C32.2094 120.86 32.3728 120.93 32.5061 121.07C32.6461 121.203 32.7161 121.367 32.7161 121.56C32.7161 121.753 32.6461 121.92 32.5061 122.06C32.3728 122.193 32.2094 122.26 32.0161 122.26C31.8228 122.26 31.6561 122.193 31.5161 122.06C31.3828 121.92 31.3161 121.753 31.3161 121.56ZM29.6561 123.04H32.4161V129.22C32.4161 129.447 32.3428 129.633 32.1961 129.78C32.0561 129.927 31.8728 130 31.6461 130H29.4161V129.28H31.3661C31.5461 129.28 31.6361 129.18 31.6361 128.98V123.76H29.6561V123.04ZM35.0691 123.04H36.6291V121H37.4091V123.04H39.3291V123.76H37.4091V126.98C37.4091 127.18 37.4991 127.28 37.6791 127.28H39.0891V128H37.3991C37.1725 128 36.9858 127.927 36.8391 127.78C36.6991 127.633 36.6291 127.447 36.6291 127.22V123.76H35.0691V123.04Z" fill="white"/>
<path d="M10.82 116H9.28L7.55 111.04H8.47L9.99 115.64H10.11L11.63 111.04H12.55L10.82 116ZM18.673 113.58C18.673 113.993 18.603 114.36 18.463 114.68C18.3297 114.993 18.1497 115.26 17.923 115.48C17.6964 115.693 17.4297 115.857 17.123 115.97C16.823 116.083 16.5097 116.14 16.183 116.14C15.8497 116.14 15.533 116.083 15.233 115.97C14.933 115.857 14.6697 115.693 14.443 115.48C14.2164 115.26 14.033 114.993 13.893 114.68C13.7597 114.36 13.693 113.993 13.693 113.58V113.46C13.693 113.053 13.7597 112.693 13.893 112.38C14.033 112.06 14.2164 111.79 14.443 111.57C14.6764 111.35 14.943 111.183 15.243 111.07C15.543 110.957 15.8564 110.9 16.183 110.9C16.5097 110.9 16.823 110.957 17.123 111.07C17.423 111.183 17.6864 111.35 17.913 111.57C18.1464 111.79 18.3297 112.06 18.463 112.38C18.603 112.693 18.673 113.053 18.673 113.46V113.58ZM16.183 115.4C16.423 115.4 16.643 115.36 16.843 115.28C17.0497 115.193 17.2297 115.07 17.383 114.91C17.5364 114.75 17.6564 114.56 17.743 114.34C17.8297 114.113 17.873 113.86 17.873 113.58V113.46C17.873 113.193 17.8297 112.95 17.743 112.73C17.6564 112.503 17.5364 112.31 17.383 112.15C17.2297 111.99 17.0497 111.867 16.843 111.78C16.6364 111.687 16.4164 111.64 16.183 111.64C15.9497 111.64 15.7297 111.687 15.523 111.78C15.3164 111.867 15.1364 111.99 14.983 112.15C14.8297 112.31 14.7097 112.503 14.623 112.73C14.5364 112.95 14.493 113.193 14.493 113.46V113.58C14.493 113.86 14.5364 114.113 14.623 114.34C14.7097 114.56 14.8297 114.75 14.983 114.91C15.1364 115.07 15.313 115.193 15.513 115.28C15.7197 115.36 15.943 115.4 16.183 115.4ZM22.3161 109.56C22.3161 109.367 22.3828 109.203 22.5161 109.07C22.6561 108.93 22.8228 108.86 23.0161 108.86C23.2094 108.86 23.3728 108.93 23.5061 109.07C23.6461 109.203 23.7161 109.367 23.7161 109.56C23.7161 109.753 23.6461 109.92 23.5061 110.06C23.3728 110.193 23.2094 110.26 23.0161 110.26C22.8228 110.26 22.6561 110.193 22.5161 110.06C22.3828 109.92 22.3161 109.753 22.3161 109.56ZM20.6561 111.04H23.4161V117.22C23.4161 117.447 23.3428 117.633 23.1961 117.78C23.0561 117.927 22.8728 118 22.6461 118H20.4161V117.28H22.3661C22.5461 117.28 22.6361 117.18 22.6361 116.98V111.76H20.6561V111.04ZM26.0691 111.04H27.6291V109H28.4091V111.04H30.3291V111.76H28.4091V114.98C28.4091 115.18 28.4991 115.28 28.6791 115.28H30.0891V116H28.3991C28.1725 116 27.9858 115.927 27.8391 115.78C27.6991 115.633 27.6291 115.447 27.6291 115.22V111.76H26.0691V111.04ZM33.9022 109.56C33.9022 109.367 33.9689 109.203 34.1022 109.07C34.2422 108.93 34.4089 108.86 34.6022 108.86C34.7955 108.86 34.9589 108.93 35.0922 109.07C35.2322 109.203 35.3022 109.367 35.3022 109.56C35.3022 109.753 35.2322 109.92 35.0922 110.06C34.9589 110.193 34.7955 110.26 34.6022 110.26C34.4089 110.26 34.2422 110.193 34.1022 110.06C33.9689 109.92 33.9022 109.753 33.9022 109.56ZM32.4822 115.28H34.2222V111.76H32.6622V111.04H35.0022V115.28H36.6222V116H32.4822V115.28ZM39.7652 113.1H39.9352L41.8252 111.04H42.7852V111.1L40.7252 113.37V113.55L43.0252 115.94V116H42.0652L39.9552 113.82H39.7652V116H38.9852V109H39.7652V113.1ZM49.2483 114.24C49.1949 114.513 49.1016 114.767 48.9683 115C48.8416 115.233 48.6783 115.437 48.4783 115.61C48.2783 115.777 48.0449 115.907 47.7783 116C47.5116 116.093 47.2149 116.14 46.8883 116.14C46.5416 116.14 46.2116 116.083 45.8983 115.97C45.5916 115.857 45.3216 115.693 45.0883 115.48C44.8549 115.26 44.6683 114.993 44.5283 114.68C44.3949 114.367 44.3283 114.007 44.3283 113.6V113.48C44.3283 113.08 44.3949 112.72 44.5283 112.4C44.6683 112.08 44.8549 111.81 45.0883 111.59C45.3216 111.37 45.5916 111.2 45.8983 111.08C46.2116 110.96 46.5416 110.9 46.8883 110.9C47.2016 110.9 47.4916 110.947 47.7583 111.04C48.0249 111.133 48.2583 111.267 48.4583 111.44C48.6649 111.607 48.8316 111.807 48.9583 112.04C49.0916 112.273 49.1816 112.527 49.2283 112.8L48.4483 112.98C48.4283 112.807 48.3783 112.64 48.2983 112.48C48.2249 112.313 48.1216 112.17 47.9883 112.05C47.8616 111.923 47.7049 111.823 47.5183 111.75C47.3316 111.677 47.1149 111.64 46.8683 111.64C46.6283 111.64 46.4016 111.687 46.1883 111.78C45.9816 111.867 45.7983 111.993 45.6383 112.16C45.4783 112.32 45.3516 112.513 45.2583 112.74C45.1716 112.967 45.1283 113.213 45.1283 113.48V113.6C45.1283 113.88 45.1716 114.133 45.2583 114.36C45.3516 114.58 45.4783 114.767 45.6383 114.92C45.7983 115.073 45.9849 115.193 46.1983 115.28C46.4116 115.36 46.6416 115.4 46.8883 115.4C47.1349 115.4 47.3483 115.363 47.5283 115.29C47.7149 115.21 47.8716 115.11 47.9983 114.99C48.1316 114.863 48.2349 114.72 48.3083 114.56C48.3883 114.4 48.4416 114.233 48.4683 114.06L49.2483 114.24Z" fill="white"/>
<path d="M29.82 139H28.28L26.55 134.04H27.47L28.99 138.64H29.11L30.63 134.04H31.55L29.82 139Z" fill="white"/>
</svg>
